<svg xmlns="http://www.w3.org/2000/svg" viewBox="0 0 1200 120" preserveAspectRatio="none"><defs><linearGradient id="m" x1="0" x2="1"><stop stop-color="#4b2d12"/><stop offset=".18" stop-color="#d4af37"/><stop offset=".5" stop-color="#ffe08a"/><stop offset=".82" stop-color="#d4af37"/><stop offset="1" stop-color="#4b2d12"/></linearGradient></defs><path d="M0 58H1200" stroke="#5b3b17" stroke-width="18"/><path d="M0 58H1200" stroke="url(#m)" stroke-width="5"/><g fill="#1a1713" stroke="#d4af37" stroke-width="3"><path d="M34 58Q70 8 106 58Q70 108 34 58Z"/><path d="M1094 58Q1130 8 1166 58Q1130 108 1094 58Z"/><path d="M600 58Q555 18 570 0L600 22L630 0Q645 18 600 58Z"/><path d="M560 58q40-34 80 0q-40 34-80 0z"/></g><path d="M128 58q85-35 170 0q85 35 170 0q85-35 170 0q85 35 170 0q85-35 170 0q85 35 170 0" stroke="#9b7428" stroke-width="2" fill="none"/></svg>