<svg xmlns="http://www.w3.org/2000/svg" viewBox="0 0 620 180"><defs><linearGradient id="f" x2="1"><stop stop-color="#fff8a8"/><stop offset=".25" stop-color="#ffd13f"/><stop offset=".6" stop-color="#ff7a12"/><stop offset="1" stop-color="#d52b0b" stop-opacity=".25"/></linearGradient></defs><path d="M0 90C90 35 150 130 235 82S390 45 465 90S545 110 620 76" fill="none" stroke="#ff4a0b" stroke-width="55" opacity=".28"/><path d="M0 90C90 35 150 130 235 82S390 45 465 90S545 110 620 76" fill="none" stroke="url(#f)" stroke-width="35" stroke-linecap="round"/><path d="M10 88Q70 55 120 91M170 84q45-35 85 0M300 85q55 38 100 0M425 88q48-30 90-2M535 83q35 20 70-5" fill="none" stroke="#fff5ad" stroke-width="9" stroke-linecap="round"/></svg>