<svg xmlns="http://www.w3.org/2000/svg" viewBox="0 0 1200 120" preserveAspectRatio="none"><defs><linearGradient id="v" x1="0" x2="1"><stop stop-color="#24331f"/><stop offset=".25" stop-color="#7d8b58"/><stop offset=".5" stop-color="#c0b17a"/><stop offset=".75" stop-color="#7d8b58"/><stop offset="1" stop-color="#24331f"/></linearGradient></defs><path d="M0 58H1200" stroke="#141814" stroke-width="20"/><path d="M0 58Q80 12 160 58T320 58T480 58T640 58T800 58T960 58T1120 58T1200 58" stroke="url(#v)" stroke-width="7" fill="none"/><g fill="#d0c7a0" stroke="#3b3b2b" stroke-width="3"><path d="M45 58q15-35 30 0q-15 35-30 0z"/><path d="M1125 58q15-35 30 0q-15 35-30 0z"/><circle cx="600" cy="58" r="18"/><path d="M588 48l-7-12 13 7 6-15 7 15 13-7-7 12 7 11-14-5-5 14-7-14-13 5z"/></g><path d="M100 54q-35-42-5-52M180 61q-30 39-2 51M1020 54q35-42 5-52M940 61q30 39 2 51" stroke="#596743" stroke-width="6" fill="none" stroke-linecap="round"/></svg>